<?xml version="1.0" encoding="UTF-8"?>
<svg version="1.1" xmlns="http://www.w3.org/2000/svg" width="424" height="376">
<path d="M0 0 C0.81923761 -0.00260775 1.63847523 -0.00521549 2.48253822 -0.00790226 C3.83208375 -0.00455618 3.83208375 -0.00455618 5.20889282 -0.0011425 C6.16489065 -0.00270249 7.12088848 -0.00426248 8.10585594 -0.00586975 C11.32332251 -0.00987237 14.54074227 -0.00669292 17.75820923 -0.00355339 C20.05917387 -0.00490776 22.36013829 -0.00668789 24.66110229 -0.00886345 C30.9212624 -0.01343357 37.18140607 -0.01164994 43.44156647 -0.00848436 C49.98249863 -0.0059586 56.52342936 -0.00829891 63.06436157 -0.00987053 C74.75456819 -0.01200854 86.44476787 -0.00869403 98.13497329 -0.00361119 C108.73920669 0.00085669 119.34342915 0.00008071 129.94766235 -0.00452995 C142.25537881 -0.00987876 154.56308828 -0.01187492 166.87080574 -0.00891769 C173.3883503 -0.00735591 179.90588732 -0.00715845 186.4234314 -0.01045418 C192.54975895 -0.01333549 198.67606575 -0.01135236 204.80239105 -0.00555992 C207.05548824 -0.00423373 209.30858715 -0.00462407 211.56168365 -0.00682259 C214.62802983 -0.00953957 217.69430879 -0.00614614 220.76065063 -0.0011425 C221.66034765 -0.00337322 222.56004467 -0.00560395 223.48700523 -0.00790226 C224.71586165 -0.00399064 224.71586165 -0.00399064 225.96954346 0 C226.67761454 0.00016235 227.38568562 0.0003247 228.11521339 0.00049198 C232.8428285 0.31746663 234.93782331 2.75816131 237.98477173 6.12584114 C238.31477173 7.11584114 238.64477173 8.10584114 238.98477173 9.12584114 C239.64477173 9.12584114 240.30477173 9.12584114 240.98477173 9.12584114 C240.98477173 9.78584114 240.98477173 10.44584114 240.98477173 11.12584114 C245.05796132 10.60625431 246.80839826 8.55472106 249.54727173 5.62584114 C253.34838874 1.57473498 255.09577166 0.19529378 260.80456543 -0.01460075 C262.43345178 -0.02666453 264.06238511 -0.03312811 265.6913147 -0.03529167 C266.5810498 -0.04025658 267.47078491 -0.04522148 268.38748169 -0.05033684 C271.33398204 -0.06495471 274.28042856 -0.07175956 277.22695923 -0.07728386 C279.27335614 -0.08303527 281.31975303 -0.088793 283.3661499 -0.09455681 C287.65845999 -0.10506548 291.95075136 -0.11090914 296.24307251 -0.11439323 C301.74336327 -0.11988011 307.24340675 -0.14391292 312.74361992 -0.17236519 C316.97123946 -0.1909868 321.19879936 -0.1961969 325.42645645 -0.19772911 C327.45424884 -0.20075684 329.48204015 -0.20878938 331.50979233 -0.22191429 C334.34653309 -0.23896596 337.1826685 -0.23709674 340.0194397 -0.23060417 C340.85701813 -0.23981895 341.69459656 -0.24903374 342.55755615 -0.25852776 C347.08917532 -0.22603229 350.47868677 -0.08507256 353.98477173 3.12584114 C354.60623169 5.55443001 354.60623169 5.55443001 354.6000061 8.46763802 C354.61396423 10.10448555 354.61396423 10.10448555 354.62820435 11.77440071 C354.60361145 13.54164497 354.60361145 13.54164497 354.57852173 15.34459114 C354.57856201 16.55401375 354.57860229 17.76343636 354.5786438 19.00950813 C354.57327864 21.56835815 354.55565393 24.12720719 354.52676392 26.68589973 C354.48493629 30.61040095 354.48569104 34.53318609 354.49258423 38.45787239 C354.48209153 40.94095728 354.46915301 43.42403329 354.45352173 45.90709114 C354.45332031 47.08525398 354.4531189 48.26341682 354.45291138 49.47728157 C354.42904358 51.1141291 354.42904358 51.1141291 354.4046936 52.78404427 C354.39627441 53.74540291 354.38785522 54.70676155 354.37918091 55.69725227 C353.91675297 58.54466913 353.29260935 59.44266075 350.98477173 61.12584114 C348.26992798 61.64537239 348.26992798 61.64537239 345.04727173 61.93834114 C334.60962705 63.37961947 326.30272707 67.44604995 319.60586548 75.68834114 C313.65866629 84.63063583 311.6274993 95.09427492 313.41055298 105.64537239 C315.73803089 114.71254095 320.99188727 122.57968406 328.75430298 127.87974739 C335.18091275 131.47009506 341.74939804 133.52473571 349.10977173 133.75474739 C351.64406074 134.25632543 352.40338058 135.09371995 353.98477173 137.12584114 C354.37918091 139.55443001 354.37918091 139.55443001 354.4046936 142.46763802 C354.42060547 143.55886971 354.43651733 144.65010139 354.45291138 145.77440071 C354.4532135 147.54164497 354.4532135 147.54164497 354.45352173 149.34459114 C354.46113525 150.55401375 354.46874878 151.76343636 354.47659302 153.00950813 C354.48740556 155.56828431 354.49024247 158.12710466 354.48574829 160.68589973 C354.4847755 164.6106349 354.52639851 168.53341944 354.57070923 172.45787239 C354.5759155 174.94094121 354.57860443 177.42401686 354.57852173 179.90709114 C354.59491699 181.08525398 354.61131226 182.26341682 354.62820435 183.47728157 C354.61889893 184.56851326 354.60959351 185.65974495 354.6000061 186.78404427 C354.60206055 187.74540291 354.60411499 188.70676155 354.60623169 189.69725227 C353.98477173 192.12584114 353.98477173 192.12584114 352.00466919 193.93544197 C347.93413126 195.53998816 344.38969935 195.54559875 340.05117798 195.51402473 C338.71613724 195.52191017 338.71613724 195.52191017 337.35412598 195.52995491 C334.41832826 195.5431358 331.48307476 195.53442353 328.54727173 195.52427864 C326.50373226 195.52629992 324.4601935 195.52921181 322.41665649 195.53297615 C318.13623174 195.53739692 313.85599493 195.53097631 309.57559204 195.51695442 C304.0910089 195.49986279 298.60686618 195.50970528 293.12229919 195.52767181 C288.90323574 195.53851626 284.68427657 195.53506025 280.46520996 195.52728844 C278.44301298 195.52528826 276.4208065 195.52773928 274.39862061 195.5347271 C271.57161403 195.54235233 268.74531911 195.53072218 265.91836548 195.51402473 C265.08392914 195.52009743 264.2494928 195.52617012 263.38977051 195.53242683 C257.44178075 195.46739695 254.20619387 194.15342191 249.74649048 190.08287239 C249.06199829 189.37517708 248.3775061 188.66748177 247.67227173 187.93834114 C246.62619751 186.86519661 246.62619751 186.86519661 245.55899048 185.77037239 C245.03949829 185.22767708 244.5200061 184.68498177 243.98477173 184.12584114 C243.51426392 184.54736458 243.0437561 184.96888802 242.55899048 185.40318489 C241.93637329 185.95103645 241.3137561 186.49888802 240.67227173 187.06334114 C240.05738892 187.60861458 239.4425061 188.15388802 238.80899048 188.71568489 C236.98477173 190.12584114 236.98477173 190.12584114 233.98477173 191.12584114 C233.98477173 191.78584114 233.98477173 192.44584114 233.98477173 193.12584114 C229.23100943 195.56899231 224.82134073 195.40880111 219.60952759 195.38653755 C218.66139915 195.3903631 217.7132707 195.39418865 216.73641109 195.39813012 C213.55742293 195.40845408 210.37861558 195.4044691 207.19961548 195.40049934 C204.92130364 195.4048461 202.64299326 195.41002913 200.36468506 195.41598701 C194.17474374 195.42939096 187.98486343 195.42995421 181.79491043 195.42742372 C176.63061371 195.42635512 171.4663294 195.43123442 166.30203533 195.43602914 C153.42507203 195.44776364 140.54815262 195.44689643 127.67118871 195.44047233 C116.48775888 195.43530152 105.30441611 195.44656312 94.12100351 195.46557055 C82.63649244 195.48494007 71.15203864 195.49291503 59.66750813 195.4894473 C53.22032444 195.48763171 46.77322053 195.49029825 40.3260498 195.50416183 C34.26530007 195.51670668 28.20472507 195.51482774 22.14397812 195.50175095 C19.9175193 195.49937846 17.6910483 195.50214378 15.46460342 195.51037407 C12.42953621 195.52078607 9.39506139 195.51278538 6.36001587 195.50006294 C5.47529067 195.50743723 4.59056547 195.51481151 3.67903042 195.52240926 C-1.03129979 195.48075971 -4.20278402 195.21509347 -8.01522827 192.12584114 C-9.24611863 189.66406042 -9.14869521 188.03345807 -9.16049194 185.2806263 C-9.1668718 184.27262978 -9.17325165 183.26463326 -9.17982483 182.22609138 C-9.18093765 181.13339943 -9.18205048 180.04070747 -9.18319702 178.91490364 C-9.18818962 177.23538109 -9.18818962 177.23538109 -9.19328308 175.52192879 C-9.1983532 173.14966938 -9.20069138 170.77740283 -9.20053101 168.40513802 C-9.20271503 164.772857 -9.22086333 161.14088078 -9.23983765 157.50865364 C-9.24277201 155.20657135 -9.24475652 152.90448761 -9.24569702 150.60240364 C-9.25288254 149.51376015 -9.26006805 148.42511665 -9.26747131 147.30348396 C-9.26439468 146.28918312 -9.26131805 145.27488228 -9.25814819 144.22984505 C-9.25957321 143.33875038 -9.26099823 142.44765572 -9.26246643 141.52955818 C-8.99509479 138.93009797 -8.41358487 137.32262969 -7.01522827 135.12584114 C-4.37222967 133.80434184 -1.95180824 133.72213595 0.98477173 133.37584114 C9.96627796 132.04451168 18.80294945 128.53004224 24.50820923 121.15709114 C30.77590679 112.22944388 34.05357752 103.14707297 32.58242798 92.10630989 C30.37108169 81.91318114 26.06484681 73.71714675 17.47305298 67.59459114 C11.04242926 63.79880697 4.42902974 61.70631603 -3.04257202 61.59459114 C-5.96300246 60.90062747 -7.11772173 59.40779233 -9.01522827 57.12584114 C-9.50970459 54.69761848 -9.50970459 54.69761848 -9.50106812 51.96177864 C-9.50722137 50.93391243 -9.51337463 49.90604622 -9.51971436 48.84703255 C-9.50534332 47.74278938 -9.49097229 46.63854622 -9.47616577 45.50084114 C-9.47524933 44.36179329 -9.47433289 43.22274544 -9.47338867 42.04918098 C-9.46734865 39.64174926 -9.45159083 37.23432518 -9.42684937 34.82701302 C-9.3903672 31.13988268 -9.38582986 27.45375803 -9.38632202 23.76646614 C-9.37648995 21.42791578 -9.36483257 19.08937223 -9.35116577 16.75084114 C-9.34894012 15.64659798 -9.34671448 14.54235481 -9.34442139 13.40464973 C-9.33166168 12.37678352 -9.31890198 11.34891731 -9.30575562 10.28990364 C-9.29813202 9.38707649 -9.29050842 8.48424934 -9.28265381 7.5540638 C-8.99362543 4.92968748 -8.48629398 3.31449146 -7.01522827 1.12584114 C-4.31119212 0.22449576 -2.77267337 0.00063574 0 0 Z M249.63386536 21.22906685 C246.98477173 24.12584114 246.98477173 24.12584114 244.26158142 25.1074543 C241.17372946 25.13239088 240.24683816 24.18194194 238.04727173 22.06334114 C237.10561157 21.1796888 237.10561157 21.1796888 236.14492798 20.27818489 C233.98477173 18.12584114 233.98477173 18.12584114 232.78831995 16.62851751 C230.03152096 13.39462995 228.02536124 11.74676674 223.716959 11.38755417 C222.03928767 11.36247646 220.36092454 11.37029761 218.68341064 11.40431404 C217.29139657 11.39662422 217.29139657 11.39662422 215.871261 11.38877904 C212.7659723 11.37890678 209.66263468 11.41187698 206.55752563 11.4446888 C204.33006842 11.44638145 202.10260786 11.44543084 199.87515259 11.44203377 C193.82995301 11.44031139 187.7854669 11.47560176 181.74043322 11.51747751 C175.42236982 11.5549705 169.10429029 11.55850877 162.78613281 11.56562996 C152.1821207 11.58216329 141.57839056 11.61964709 130.97451782 11.67320442 C120.05395819 11.7283038 109.1334697 11.77076189 98.21279907 11.7962513 C97.53931441 11.79782764 96.86582975 11.79940398 96.17193647 11.80102809 C92.79316062 11.80885848 89.41438426 11.81644069 86.03560758 11.82389951 C58.01848021 11.88606965 30.00164225 11.99216893 1.98477173 12.12584114 C1.91073461 17.35855683 1.8562239 22.59096915 1.81997681 27.82408333 C1.80487 29.60506181 1.78438338 31.38600298 1.75845337 33.16685677 C1.7221523 35.72359092 1.70506484 38.27983424 1.69180298 40.83677864 C1.67631912 41.6357859 1.66083527 42.43479317 1.6448822 43.25801277 C1.60900737 45.73648262 1.60900737 45.73648262 1.98477173 49.12584114 C5.11376301 51.21183533 7.50145564 51.90338716 11.10977173 52.87584114 C17.28186567 54.73911478 21.9980268 57.06045671 26.98477173 61.12584114 C27.67184204 61.67755989 28.35891235 62.22927864 29.06680298 62.79771614 C37.53775891 70.37784497 42.94301078 81.84009754 43.98477173 93.12584114 C44.0543811 93.8490052 44.12399048 94.57216927 44.19570923 95.31724739 C44.71450701 106.4713997 40.66988078 119.33035923 33.48477173 127.91880989 C32.34825005 129.01981527 31.17129255 130.078911 29.98477173 131.12584114 C29.98477173 131.78584114 29.98477173 132.44584114 29.98477173 133.12584114 C29.13205688 133.53189583 29.13205688 133.53189583 28.26211548 133.94615364 C25.91215239 135.16345871 23.76465237 136.55748713 21.54727173 138.00084114 C16.45485526 141.10949537 11.30307056 142.77994053 5.57461548 144.36412239 C3.07679073 144.87420476 3.07679073 144.87420476 1.98477173 146.12584114 C1.89618527 148.86478199 1.86953694 151.57837384 1.88711548 154.31724739 C1.88853043 155.13708611 1.88994537 155.95692482 1.8914032 156.80160713 C1.89701884 159.43055496 1.90957394 162.05941888 1.92227173 164.68834114 C1.92728472 166.46633471 1.93184797 168.2443296 1.9359436 170.02232552 C1.94699334 174.39019659 1.96426842 178.75800462 1.98477173 183.12584114 C30.57127743 183.39992888 59.15761714 183.61212891 87.74518086 183.73862509 C91.12452581 183.75363255 94.50386816 183.76916452 97.88320923 183.78502083 C98.55594044 183.78816855 99.22867166 183.79131628 99.92178866 183.79455939 C110.79725221 183.84669514 121.67195016 183.94126348 132.54696038 184.05167469 C143.71595701 184.16412009 154.88469291 184.22969625 166.05426192 184.25490308 C172.3241819 184.27052482 178.59236895 184.30713642 184.86173248 184.39460182 C190.768715 184.47634026 196.67325896 184.50112481 202.58075333 184.48313332 C204.74312493 184.4864222 206.90558193 184.51012951 209.06746292 184.55630684 C222.38728828 185.10134822 222.38728828 185.10134822 233.52449584 178.78647161 C234.98630029 177.17775212 236.32268025 175.521841 237.64873886 173.80060387 C239.98477173 171.12584114 239.98477173 171.12584114 242.66623306 170.17584038 C244.98477173 170.12584114 244.98477173 170.12584114 247.01211548 171.34849739 C247.64246704 171.95564583 248.2728186 172.56279427 248.92227173 173.18834114 C249.55004517 173.7774427 250.1778186 174.36654427 250.82461548 174.97349739 C252.98477173 177.12584114 252.98477173 177.12584114 254.21319008 178.6245842 C257.06992999 181.9177056 258.46254401 183.02948461 262.89526367 183.84736824 C264.38909088 183.86459961 265.8835303 183.84916397 267.37686157 183.80699348 C268.19703766 183.80786964 269.01721375 183.8087458 269.86224365 183.80964851 C272.55772063 183.80548737 275.25067024 183.75890884 277.94570923 183.71177864 C279.82042074 183.70058117 281.69514987 183.69204359 283.56988525 183.68605232 C288.49241022 183.66319725 293.41386461 183.60430289 298.33596802 183.53782845 C304.24792864 183.46551307 310.16024824 183.43808404 316.07252502 183.4031086 C325.04401737 183.34502124 334.01316307 183.23002756 342.98477173 183.12584114 C342.98477173 170.58584114 342.98477173 158.04584114 342.98477173 145.12584114 C335.55977173 142.65084114 335.55977173 142.65084114 327.98477173 140.12584114 C315.24293067 133.09128306 308.10705102 124.62483074 303.16836548 110.84849739 C299.94074139 98.72797897 301.41445305 85.56038994 307.37539673 74.55943489 C308.81521492 72.3201387 310.34860628 70.22476046 311.98477173 68.12584114 C312.41274048 67.51224739 312.84070923 66.89865364 313.28164673 66.26646614 C320.58763465 56.55379985 331.80694622 53.56517207 342.98477173 50.12584114 C342.98477173 37.25584114 342.98477173 24.38584114 342.98477173 11.12584114 C328.5505285 10.74705919 328.5505285 10.74705919 314.1156311 10.49107552 C308.21782434 10.41365836 302.32266614 10.32258383 296.4269104 10.14512825 C291.66740907 10.00278619 286.91074944 9.9259313 282.14928246 9.89243698 C280.34257471 9.86860436 278.53600492 9.82205947 276.73052406 9.7513504 C264.04191686 9.27465493 257.75801766 11.22915789 249.63386536 21.22906685 Z " fill="#F1CD55" transform="translate(21.015228271484375,174.87415885925293)"/>
<path d="M0 0 C2.53863487 2.69500737 4.2212209 5.77005017 6 9 C6.51401367 9.88220215 7.02802734 10.7644043 7.55761719 11.67333984 C9.19336373 14.49547959 10.78854073 17.33738813 12.375 20.1875 C16.92011934 28.36567137 16.92011934 28.36567137 21.65625 36.43359375 C22.0373291 37.06950439 22.4184082 37.70541504 22.81103516 38.3605957 C23.79902508 39.99900855 24.80127888 41.62879688 25.8046875 43.2578125 C27 46 27 46 26.984375 48.640625 C25.69646292 51.72752538 24.12077149 52.74194825 21.375 54.625 C13.72711721 60.42117478 9.14872707 67.64849766 7 77 C6.04179062 88.62295533 6.90742198 97.96682003 14.33984375 107.15234375 C21.1848796 114.770466 29.20426145 119.37729892 39.54296875 120.203125 C46.72634436 120.33045219 53.66962113 119.55535229 59.97265625 115.8359375 C62.72917413 114.6993386 64.17549327 115.12682824 67 116 C68.55688477 117.63354492 68.55688477 117.63354492 69.87890625 119.79296875 C70.38309082 120.60813965 70.88727539 121.42331055 71.40673828 122.26318359 C74.30903141 127.24858138 77.15261142 132.26048541 79.9375 137.3125 C81.11217788 139.434205 82.28795737 141.55530048 83.46484375 143.67578125 C84.32505127 145.2373999 84.32505127 145.2373999 85.20263672 146.83056641 C86.43776516 149.0085666 87.71836645 151.16120689 89.03564453 153.29052734 C90.00993408 154.86954834 90.00993408 154.86954834 91.00390625 156.48046875 C91.60146729 157.42172607 92.19902832 158.3629834 92.81469727 159.33276367 C94 162 94 162 93.93481445 164.66088867 C92.77629967 167.55974743 91.69157958 168.34034535 89.0390625 169.9453125 C88.22469727 170.44836914 87.41033203 170.95142578 86.57128906 171.46972656 C85.72276367 171.9747168 84.87423828 172.47970703 84 173 C82.80842285 173.74588379 82.80842285 173.74588379 81.59277344 174.50683594 C79.20521062 175.99575887 76.79460625 177.43884661 74.375 178.875 C73.56804687 179.37257812 72.76109375 179.87015625 71.9296875 180.3828125 C67.14661769 183.20917193 63.72713795 184.83919502 58 184 C56 182 56 182 55.3125 179.25 C56.11064045 175.47697242 56.56417892 175.20340541 59.625 173.125 C61.40087502 172.05663359 63.19529106 171.01890359 65 170 C66.23887725 169.28227779 67.47712318 168.5634651 68.71484375 167.84375 C72.12846673 165.86899118 75.55981233 163.92807104 79 162 C77.70360008 157.7148652 76.05768261 154.08234605 73.77734375 150.234375 C73.15666016 149.17992187 72.53597656 148.12546875 71.89648438 147.0390625 C71.25001953 145.95367187 70.60355469 144.86828125 69.9375 143.75 C68.65459074 141.57833596 67.37202099 139.40647131 66.08984375 137.234375 C65.52128662 136.27756836 64.95272949 135.32076172 64.36694336 134.33496094 C63.53517794 132.91417071 62.7362715 131.47254299 62 130 C57.326834 130.62734772 57.326834 130.62734772 52.69921875 131.515625 C39.11358621 133.95356774 25.79945306 131.2264991 14.26953125 123.6640625 C4.80644435 116.72555128 -1.46002034 106.86170681 -4.703125 95.546875 C-6.3675543 81.2678236 -5.29217916 68.12710769 3.2734375 56.11328125 C6.24933521 52.47083632 9.56150483 49.20286225 13 46 C7.33385731 35.12670383 1.28707753 24.52570152 -5 14 C-9.1653331 15.53748642 -12.9658043 17.55639307 -16.8125 19.75 C-17.49626709 20.13704102 -18.18003418 20.52408203 -18.88452148 20.92285156 C-25.14116772 24.47924655 -31.35086305 28.11577667 -37.5625 31.75 C-45.90972801 36.63266814 -54.27798075 41.47530295 -62.6875 46.25 C-63.64922119 46.79881836 -64.61094238 47.34763672 -65.60180664 47.91308594 C-66.50020264 48.42129883 -67.39859863 48.92951172 -68.32421875 49.453125 C-69.10885498 49.89817383 -69.89349121 50.34322266 -70.7019043 50.80175781 C-73 52 -73 52 -75.7409668 53.01635742 C-76.48644775 53.34095947 -77.23192871 53.66556152 -78 54 C-78.93351741 56.32119828 -78.93351741 56.32119828 -79.125 59.0625 C-79.66309286 62.81434014 -80.24274482 66.42178623 -81.3125 70.0625 C-81.51488281 70.77535156 -81.71726563 71.48820312 -81.92578125 72.22265625 C-83 74 -83 74 -85.10546875 75.3671875 C-89.06636073 76.23313149 -92.2188487 75.21010035 -96 74.0625 C-102.04037049 72.26264791 -105.94359911 71.4922333 -111.75708008 74.36010742 C-112.75118896 74.93607666 -113.74529785 75.5120459 -114.76953125 76.10546875 C-115.89351318 76.75225586 -117.01749512 77.39904297 -118.17553711 78.06542969 C-119.38795056 78.77262793 -120.60026921 79.47998871 -121.8125 80.1875 C-123.07070778 80.91497145 -124.32925732 81.64185208 -125.58813477 82.36816406 C-129.39768299 84.56921209 -133.19941474 86.7835223 -137 89 C-138.09602539 89.63824707 -139.19205078 90.27649414 -140.32128906 90.93408203 C-144.35401382 93.28324821 -148.38547326 95.63454149 -152.41381836 97.99121094 C-159.55663272 102.16860125 -166.72965115 106.29002121 -173.91870117 110.38720703 C-188.76654317 118.85208706 -203.58696405 127.36651421 -218.29418945 136.07373047 C-226.48651749 140.90512887 -234.76244022 145.59297558 -243.03076172 150.29272461 C-244.74610107 151.2693103 -244.74610107 151.2693103 -246.49609375 152.265625 C-248.15294189 153.20631836 -248.15294189 153.20631836 -249.84326172 154.16601562 C-253.56335021 156.3272921 -257.19596317 158.61226176 -260.80102539 160.95996094 C-263.40192274 162.19009558 -265.15426614 162.2821625 -268 162 C-270.4071187 160.42292223 -270.8996214 159.42382077 -271.5625 156.625 C-270.72933233 152.73688419 -268.12075903 151.1878406 -265 149 C-261.12686115 146.65183808 -257.16315659 144.48139162 -253.1875 142.3125 C-250.91850342 141.05867943 -248.65027469 139.8034683 -246.3828125 138.546875 C-245.28227539 137.93779297 -244.18173828 137.32871094 -243.04785156 136.70117188 C-239.18473891 134.5449584 -235.36516648 132.32318187 -231.5625 130.0625 C-224.59259867 125.92632553 -217.58494844 121.8588442 -210.5625 117.8125 C-208.90383911 116.85657959 -208.90383911 116.85657959 -207.21166992 115.88134766 C-203.8080747 113.9203862 -200.40408111 111.96011785 -197 110 C-192.62449212 107.48004706 -188.24943866 104.95930859 -183.875 102.4375 C-182.79661865 101.81584961 -181.7182373 101.19419922 -180.60717773 100.55371094 C-173.43241078 96.41377926 -166.27506949 92.24490752 -159.125 88.0625 C-150.17200862 82.82887 -141.18960089 77.64852847 -132.1875 72.5 C-131.60494446 72.16638458 -131.02238892 71.83276917 -130.42218018 71.48904419 C-127.65767651 69.90653281 -124.88924582 68.33259782 -122.11010742 66.77587891 C-120.06617677 65.60878953 -118.04637054 64.39819884 -116.0559082 63.14208984 C-108.37060937 58.45187092 -108.37060937 58.45187092 -103.20703125 59.2890625 C-101.73009361 59.69245516 -100.26405417 60.13811098 -98.8125 60.625 C-98.05130859 60.84285156 -97.29011719 61.06070313 -96.50585938 61.28515625 C-94.65933947 61.81936956 -92.82763022 62.40435967 -91 63 C-90.7834375 61.14761719 -90.7834375 61.14761719 -90.5625 59.2578125 C-89.24488639 48.86788019 -89.24488639 48.86788019 -85.24243164 45.53759766 C-79.10602054 41.60777991 -72.82135517 38.01164777 -66.4375 34.5 C-57.84521929 29.73004637 -49.29731147 24.89624637 -40.8125 19.9375 C-39.34586914 19.08357666 -39.34586914 19.08357666 -37.84960938 18.21240234 C-32.81609803 15.27174573 -27.81664851 12.28536051 -22.8515625 9.23046875 C-21.85793701 8.62533447 -20.86431152 8.0202002 -19.84057617 7.39672852 C-17.95765716 6.24759528 -16.08225738 5.08601378 -14.21606445 3.90991211 C-5.32346445 -1.49542699 -5.32346445 -1.49542699 0 0 Z " fill="#F1CD55" transform="translate(326,7)"/>
<path d="M0 0 C1.6953125 1.890625 1.6953125 1.890625 3.125 4.25 C3.87523437 5.47396484 3.87523437 5.47396484 4.640625 6.72265625 C5.08921875 7.47417969 5.5378125 8.22570312 6 9 C6.61875 9.886875 7.2375 10.77375 7.875 11.6875 C9.31225048 14.64184821 9.36044956 16.755954 9 20 C7 22 7 22 3.68359375 22.57421875 C0 22 0 22 -1.41357422 20.66650391 C-2.73707025 18.77333596 -3.84812725 16.8491534 -4.9375 14.8125 C-5.33517578 14.13896484 -5.73285156 13.46542969 -6.14257812 12.77148438 C-8.19879272 9.1439113 -9.72284683 6.28208176 -9 2 C-6.04179774 -1.2868914 -4.08375772 -1.33832183 0 0 Z " fill="#F1CD55" transform="translate(268,118)"/>
<path d="M0 0 C2.01510904 1.79817146 2.89595875 3.28449448 3.28613281 5.96777344 C3.40427945 8.33995243 3.40895221 10.68773146 3.375 13.0625 C3.38660156 13.87783203 3.39820313 14.69316406 3.41015625 15.53320312 C3.40628906 16.31759766 3.40242188 17.10199219 3.3984375 17.91015625 C3.39505371 18.62308838 3.39166992 19.33602051 3.38818359 20.07055664 C2.88427842 22.57518718 2.01774773 23.46969235 0 25 C-3.0625 25.3125 -3.0625 25.3125 -6 25 C-8.93872655 22.06127345 -8.29169002 19.4763338 -8.32226562 15.45703125 C-8.31904297 14.48121094 -8.31582031 13.50539062 -8.3125 12.5 C-8.33666992 11.03626953 -8.33666992 11.03626953 -8.36132812 9.54296875 C-8.36197266 8.61097656 -8.36261719 7.67898437 -8.36328125 6.71875 C-8.36626221 5.86216797 -8.36924316 5.00558594 -8.37231445 4.12304688 C-8.24945068 3.42244141 -8.12658691 2.72183594 -8 2 C-4.77856724 -0.14762184 -3.7404533 -0.561068 0 0 Z " fill="#F1CD55" transform="translate(267,207)"/>
<path d="M0 0 C2.25 1.3125 2.25 1.3125 3.25 3.3125 C3.48580516 6.28602288 3.43517948 9.26813698 3.4375 12.25 C3.44974609 13.07435547 3.46199219 13.89871094 3.47460938 14.74804688 C3.47750977 15.93817383 3.47750977 15.93817383 3.48046875 17.15234375 C3.48457764 17.87800537 3.48868652 18.60366699 3.49291992 19.35131836 C3.25 21.3125 3.25 21.3125 1.25 24.3125 C-1.125 25.1875 -1.125 25.1875 -3.75 25.3125 C-5.87866211 24.10546875 -5.87866211 24.10546875 -7.75 22.3125 C-8.57264667 19.02944326 -8.35289377 15.68656784 -8.3125 12.3125 C-8.33634766 11.39726562 -8.36019531 10.48203125 -8.38476562 9.5390625 C-8.37923216 7.02317979 -8.30124508 4.76770517 -7.75 2.3125 C-4.8556479 -0.34264945 -3.83375482 -0.95843871 0 0 Z " fill="#F1CD55" transform="translate(266.75,277.6875)"/>
<path d="M0 0 C3.89805752 0.82458909 4.22703812 1.54441223 6.375 4.75 C7.34881149 6.38672274 8.30765642 8.0324596 9.25 9.6875 C9.67925781 10.34105469 10.10851562 10.99460937 10.55078125 11.66796875 C12.30537599 14.3993482 13.26043004 16.2181481 13.1875 19.5 C12.25 21.6875 12.25 21.6875 9.25 23.6875 C6.3359375 23.73046875 6.3359375 23.73046875 3.25 22.6875 C1.44792408 20.41230382 0.19781523 18.52467265 -1.125 16 C-1.47949219 15.38705078 -1.83398438 14.77410156 -2.19921875 14.14257812 C-4.36543981 10.19905213 -5.34094347 7.17210433 -4.75 2.6875 C-2.75 0.6875 -2.75 0.6875 0 0 Z " fill="#F1CD55" transform="translate(246.75,86.3125)"/>
<path d="M0 0 C3.0625 0.375 3.0625 0.375 4.7265625 1.8671875 C6.64092726 5.4608196 6.53708613 8.90341212 6.5 12.875 C6.51998047 13.63425781 6.53996094 14.39351563 6.56054688 15.17578125 C6.55738841 18.78275371 6.36660486 20.95263214 4.234375 23.9140625 C2.0625 25.375 2.0625 25.375 -1.125 25.25 C-2.053125 24.96125 -2.98125 24.6725 -3.9375 24.375 C-5.76421197 20.72157606 -5.12220722 16.39660841 -5.125 12.375 C-5.13724609 11.446875 -5.14949219 10.51875 -5.16210938 9.5625 C-5.16404297 8.675625 -5.16597656 7.78875 -5.16796875 6.875 C-5.17207764 6.0603125 -5.17618652 5.245625 -5.18041992 4.40625 C-4.76082008 0.89763627 -3.33736999 0.42604723 0 0 Z " fill="#F1CD55" transform="translate(263.9375,312.625)"/>
<path d="M0 0 C2.375 0.875 2.375 0.875 4.375 3.875 C4.79661515 6.86115954 4.69934284 9.86218255 4.6875 12.875 C4.70361328 13.69484375 4.71972656 14.5146875 4.73632812 15.359375 C4.73697266 16.14828125 4.73761719 16.9371875 4.73828125 17.75 C4.74275269 18.82894531 4.74275269 18.82894531 4.74731445 19.9296875 C4.26409399 22.45447481 3.40684691 23.33870375 1.375 24.875 C-1.6875 25.1875 -1.6875 25.1875 -4.625 24.875 C-7.91571684 21.58428316 -6.99376156 17.40734495 -7 12.9375 C-7.02449219 12.01775391 -7.04898437 11.09800781 -7.07421875 10.15039062 C-7.07808594 9.26673828 -7.08195312 8.38308594 -7.0859375 7.47265625 C-7.09415527 6.66320557 -7.10237305 5.85375488 -7.11083984 5.01977539 C-6.625 2.875 -6.625 2.875 -4.76025391 1.07983398 C-2.625 -0.125 -2.625 -0.125 0 0 Z " fill="#F1CD55" transform="translate(265.625,242.125)"/>
<path d="M0 0 C3.125 0.4375 3.125 0.4375 5.125 2.25 C13.22261762 15.15557808 13.22261762 15.15557808 12.91796875 19.15625 C12.125 21.4375 12.125 21.4375 10.125 23.4375 C7.8125 23.9375 7.8125 23.9375 5.125 23.4375 C0.11966172 18.55729518 -4.41938061 12.01736665 -5.3125 5 C-4.67651921 1.27496968 -3.70707699 0.56412041 0 0 Z " fill="#F1CD55" transform="translate(281.875,147.5625)"/>
<path d="M0 0 C2.875 -0.125 2.875 -0.125 6 0 C6.66 0.66 7.32 1.32 8 2 C7.34 3.32 6.68 4.64 6 6 C3.97945196 4.35830472 1.97956942 2.69088222 0 1 C0 0.67 0 0.34 0 0 Z " fill="#F1CD55" transform="translate(270,363)"/>
<path d="M0 0 C0.33 0.66 0.66 1.32 1 2 C-0.65 2.33 -2.3 2.66 -4 3 C-4 2.34 -4 1.68 -4 1 C-6.475 2.485 -6.475 2.485 -9 4 C-6.78720234 -0.89976625 -5.2154437 -1.47102258 0 0 Z " fill="#F1CD55" transform="translate(268,243)"/>
<path d="M0 0 C0.99 0.66 1.98 1.32 3 2 C2.360625 2.268125 1.72125 2.53625 1.0625 2.8125 C-1.33131686 3.88667752 -1.33131686 3.88667752 -2 7 C-3.98 7 -5.96 7 -8 7 C-5.4837822 4.39391727 -2.94865641 2.10618315 0 0 Z " fill="#F1CD55" transform="translate(44,298)"/>
<path d="M0 0 C0 0.66 0 1.32 0 2 C0.66 2.66 1.32 3.32 2 4 C0.02 4 -1.96 4 -4 4 C-4.66 2.68 -5.32 1.36 -6 0 C-3.50907189 -1.24546405 -2.58919267 -0.7767578 0 0 Z " fill="#F1CD55" transform="translate(265,228)"/>
<path d="M0 0 C0 0.33 0 0.66 0 1 C-1.65 1 -3.3 1 -5 1 C-5 1.66 -5 2.32 -5 3 C-5.61875 3.144375 -6.2375 3.28875 -6.875 3.4375 C-9.03258322 3.93152225 -9.03258322 3.93152225 -11 5 C-10.625 3.0625 -10.625 3.0625 -10 1 C-6.78548731 -0.60725635 -3.56387464 -0.05748185 0 0 Z " fill="#F1CD55" transform="translate(24,309)"/>
<path d="M0 0 C0.99 0.99 1.98 1.98 3 3 C1.71034824 4.37562854 0.37310707 5.70766393 -1 7 C-1.66 7 -2.32 7 -3 7 C-2.625 4.0625 -2.625 4.0625 -2 1 C-1.34 0.67 -0.68 0.34 0 0 Z " fill="#F1CD55" transform="translate(386,182)"/>
<path d="M0 0 C0.99 0.33 1.98 0.66 3 1 C1.74821404 3.50357192 0.00018842 5.06433379 -2 7 C-2.125 4.625 -2.125 4.625 -2 2 C-1.34 1.34 -0.68 0.68 0 0 Z " fill="#F1CD55" transform="translate(261,118)"/>
</svg>
